<svg width="128" height="128" viewBox="0 0 128 128" fill="none" xmlns="http://www.w3.org/2000/svg">
<path d="M96.6149 102.385C95.6653 101.436 94.1634 101.348 93.1002 102.163C85.0283 108.331 74.9383 111.995 63.9968 111.995C53.0553 111.995 42.9705 108.336 34.8985 102.169C33.8302 101.353 32.3334 101.441 31.3838 102.391L23.7867 109.988C22.6719 111.102 22.7544 112.95 23.9828 113.941C34.945 122.746 48.8593 128 63.9916 128C79.124 128 93.0486 122.741 104.011 113.941C105.239 112.955 105.322 111.102 104.207 109.988L96.6098 102.385H96.6149Z" fill="#1E1F23"/>
<path d="M71.5485 54.6872C67.3835 50.5222 60.6277 50.5222 56.4626 54.6872L12.7068 98.443C11.7778 99.372 11.6591 100.848 12.4385 101.911C13.5481 103.424 14.7248 104.884 15.9635 106.288C16.9751 107.434 18.7557 107.475 19.8343 106.391L33.8312 92.3994C50.4964 75.7394 77.5096 75.7394 94.1696 92.3994L108.156 106.386C109.24 107.47 111.015 107.429 112.027 106.283C113.266 104.879 114.442 103.418 115.557 101.906C116.337 100.843 116.223 99.3669 115.294 98.4379L71.5485 54.6821V54.6872Z" fill="#0057FF"/>
<path d="M112.042 21.7282C110.871 20.3967 109.642 19.1064 108.357 17.8729C105.782 15.3904 102.995 13.1247 100.038 11.1067C98.5306 10.0796 96.9822 9.1145 95.3926 8.22163C86.1181 2.97796 75.4037 0 63.9976 0C52.5916 0 41.8875 2.97796 32.613 8.22163C31.0182 9.1145 29.4647 10.0796 27.9577 11.1067C25.0004 13.1247 22.2134 15.3956 19.638 17.8729C18.3529 19.1064 17.1245 20.3915 15.953 21.7282C6.02816 33.0001 0 47.797 0 63.9976C0 74.0824 2.33282 83.6253 6.49266 92.1102C7.2978 93.7566 9.4861 94.1282 10.7815 92.8327L18.8587 84.7556C19.607 84.0072 19.8496 82.877 19.4522 81.8963C17.2278 76.3688 15.9994 70.3303 15.9994 64.0028C15.9994 52.2149 20.247 41.423 27.2971 33.0723C28.4428 31.7098 29.666 30.4195 30.9563 29.1912C33.5575 26.719 36.4374 24.5359 39.5443 22.6985C41.1391 21.7437 42.7958 20.887 44.5093 20.1231C50.4601 17.4755 57.056 16.0046 63.9976 16.0046C70.9393 16.0046 77.53 17.4755 83.486 20.1335C85.1994 20.8921 86.8613 21.754 88.4613 22.6985C91.5682 24.5462 94.4481 26.7242 97.0493 29.1963C98.3448 30.4247 99.5628 31.715 100.709 33.0775C107.753 41.4282 112.001 52.2252 112.001 64.0028C112.001 70.3303 110.778 76.3688 108.553 81.8963C108.156 82.8821 108.399 84.0072 109.147 84.7556L117.219 92.8276C118.514 94.123 120.697 93.7514 121.508 92.105C125.668 83.6202 128 74.0824 128 63.9976C128 47.797 121.983 33.0001 112.047 21.7282H112.042Z" fill="#1E1F23"/>
</svg>
