<svg width="389" height="80" viewBox="0 0 389 80" fill="none" xmlns="http://www.w3.org/2000/svg">
<path d="M130.21 25.1089C129.103 23.8315 127.787 22.7638 126.252 21.9154C123.987 20.6639 121.391 20.0381 118.458 20.0381C114.994 20.0381 111.865 20.9316 109.068 22.7154C106.272 24.5025 104.059 26.8992 102.433 29.9087C100.807 32.9183 99.9944 36.315 99.9944 40.0988C99.9944 43.8825 100.807 47.1985 102.433 50.2081C104.059 53.2177 106.268 55.6015 109.068 57.3595C111.865 59.1175 114.994 59.9981 118.458 59.9981C121.387 59.9981 124 59.3723 126.29 58.1208C127.816 57.2885 129.119 56.2434 130.206 54.9951V59.2014H138.996V20.8381H130.206V25.1121L130.21 25.1089ZM127.771 48.4082C125.774 50.5952 123.149 51.6855 119.9 51.6855C117.768 51.6855 115.891 51.1952 114.265 50.2081C112.639 49.221 111.362 47.8501 110.43 46.0921C109.497 44.3341 109.03 42.3084 109.03 40.0181C109.03 37.7279 109.494 35.7021 110.43 33.9441C111.362 32.1861 112.639 30.8152 114.265 29.8281C115.891 28.841 117.768 28.3507 119.9 28.3507C122.032 28.3507 123.987 28.8443 125.616 29.8281C127.242 30.8152 128.506 32.1861 129.413 33.9441C130.319 35.7021 130.771 37.7279 130.771 40.0181C130.771 43.4277 129.771 46.2244 127.774 48.4114L127.771 48.4082Z" fill="white"/>
<path d="M172.405 42.7353C172.405 45.561 171.725 47.7286 170.367 49.248C169.009 50.7673 167.051 51.5253 164.493 51.5253C162.841 51.5253 161.415 51.1801 160.215 50.4866C159.015 49.7963 158.109 48.7964 157.499 47.4899C156.887 46.1835 156.58 44.5997 156.58 42.7353V20.8359H147.79V43.1352C147.79 46.4384 148.496 49.3576 149.909 51.8866C151.319 54.4188 153.293 56.4026 155.822 57.8412C158.351 59.2799 161.244 59.9992 164.493 59.9992C167.741 59.9992 170.699 59.2928 173.205 57.8799C175.709 56.4703 177.667 54.4962 179.079 51.9672C180.489 49.4383 181.199 46.4932 181.199 43.1352V20.8359H172.409V42.7353H172.405Z" fill="white"/>
<path d="M204.694 4.85254H195.9V20.8359H186.71V28.8292H195.9V59.1992H204.694V28.8292H213.884V20.8359H204.694V4.85254Z" fill="white"/>
<path d="M246.974 22.6743C243.935 20.9163 240.526 20.0356 236.745 20.0356C232.965 20.0356 229.633 20.9292 226.594 22.713C223.555 24.5 221.146 26.8838 219.362 29.8644C217.575 32.8481 216.685 36.2061 216.685 39.935C216.685 43.6639 217.575 47.0477 219.362 50.0863C221.146 53.1249 223.559 55.5345 226.594 57.3184C229.633 59.1054 233.013 59.9957 236.745 59.9957C240.477 59.9957 243.939 59.1054 246.974 57.3184C250.013 55.5345 252.422 53.1217 254.206 50.0863C255.99 47.0477 256.883 43.6672 256.883 39.935C256.883 36.2029 255.99 32.8352 254.206 29.8257C252.419 26.8161 250.009 24.4323 246.974 22.671V22.6743ZM246.455 45.9316C245.522 47.6896 244.216 49.0638 242.539 50.0476C240.861 51.0347 238.929 51.525 236.745 51.525C234.561 51.525 232.71 51.0347 231.029 50.0476C229.352 49.0638 228.046 47.6896 227.113 45.9316C226.181 44.1736 225.713 42.1737 225.713 39.9382C225.713 37.7028 226.178 35.7287 227.113 34.0255C228.046 32.3224 229.352 30.9772 231.029 29.9902C232.707 29.0063 234.613 28.5128 236.745 28.5128C238.877 28.5128 240.848 29.0063 242.5 29.9902C244.151 30.9772 245.458 32.3224 246.416 34.0255C247.374 35.7319 247.855 37.7028 247.855 39.9382C247.855 42.1737 247.387 44.1736 246.455 45.9316Z" fill="white"/>
<path d="M292.046 21.9551C289.807 20.6745 287.249 20.0358 284.372 20.0358C281.494 20.0358 279.004 20.6874 276.74 21.9938C275.262 22.8454 274.001 23.9035 272.943 25.1615V1.65576H264.153V59.1991H272.943V37.0611C272.943 35.3579 273.314 33.8386 274.062 32.5064C274.808 31.1742 275.846 30.1355 277.178 29.3904C278.511 28.6452 280.03 28.2711 281.733 28.2711C284.291 28.2711 286.381 29.0968 288.007 30.7484C289.633 32.4 290.446 34.5064 290.446 37.0611V59.1991H299.236V35.1418C299.236 32.158 298.597 29.5355 297.317 27.2711C296.039 25.0066 294.278 23.2357 292.043 21.9551H292.046Z" fill="white"/>
<path d="M331.849 42.7353C331.849 45.561 331.169 47.7286 329.811 49.248C328.453 50.7673 326.495 51.5253 323.937 51.5253C322.285 51.5253 320.859 51.1801 319.66 50.4866C318.46 49.7963 317.553 48.7964 316.943 47.4899C316.331 46.1835 316.024 44.5997 316.024 42.7353V20.8359H307.234V43.1352C307.234 46.4384 307.941 49.3576 309.353 51.8866C310.763 54.4188 312.737 56.4026 315.266 57.8412C317.795 59.2799 320.689 59.9992 323.937 59.9992C327.185 59.9992 330.143 59.2928 332.649 57.8799C335.153 56.4703 337.111 54.4962 338.523 51.9672C339.933 49.4383 340.643 46.4932 340.643 43.1352V20.8359H331.853V42.7353H331.849Z" fill="white"/>
<path d="M386.076 29.9097C384.451 26.9001 382.241 24.5034 379.441 22.7164C376.644 20.9326 373.512 20.0391 370.051 20.0391C367.174 20.0391 364.59 20.6648 362.3 21.9164C360.745 22.7648 359.416 23.8357 358.303 25.1131V1.65576H349.513V59.1991H358.303V54.996C359.39 56.2444 360.693 57.2895 362.219 58.1217C364.509 59.3733 367.119 59.9991 370.051 59.9991C373.512 59.9991 376.644 59.1185 379.441 57.3605C382.238 55.6025 384.447 53.2187 386.076 50.2091C387.702 47.1995 388.515 43.8286 388.515 40.0997C388.515 36.3708 387.702 32.9193 386.076 29.9097ZM378.083 46.0931C377.151 47.8511 375.87 49.2252 374.248 50.2091C372.622 51.1962 370.745 51.6865 368.612 51.6865C366.48 51.6865 364.59 51.1962 362.938 50.2091C361.287 49.222 360.006 47.8511 359.103 46.0931C358.197 44.3351 357.745 42.3093 357.745 40.0191C357.745 37.7288 358.197 35.7031 359.103 33.9451C360.009 32.1871 361.287 30.8161 362.938 29.8291C364.59 28.842 366.48 28.3517 368.612 28.3517C370.745 28.3517 372.622 28.8452 374.248 29.8291C375.873 30.8161 377.151 32.1871 378.083 33.9451C379.015 35.7031 379.483 37.7288 379.483 40.0191C379.483 42.3093 379.015 44.3351 378.083 46.0931Z" fill="white"/>
<path d="M60.384 63.9911C59.7905 63.3976 58.8518 63.3427 58.1873 63.8524C53.1423 67.7071 46.836 69.9974 39.9975 69.9974C33.159 69.9974 26.856 67.7104 21.811 63.8556C21.1433 63.346 20.2078 63.4008 19.6143 63.9943L14.8661 68.7426C14.1693 69.4393 14.2209 70.5941 14.9886 71.2135C21.84 76.7165 30.5365 80.0003 39.9943 80.0003C49.4521 80.0003 58.155 76.7133 65.0064 71.2135C65.7741 70.5974 65.8258 69.4393 65.129 68.7426L60.3808 63.9911H60.384Z" fill="white"/>
<path d="M44.7178 34.1804C42.1147 31.5772 37.8922 31.5772 35.2891 34.1804L7.94154 61.5279C7.36091 62.1086 7.28672 63.0311 7.7738 63.6956C8.46733 64.6407 9.20279 65.5536 9.97696 66.431C10.6092 67.1471 11.7221 67.1729 12.3962 66.4955L21.1444 57.7506C31.5602 47.338 48.4435 47.338 58.8561 57.7506L67.5977 66.4923C68.2751 67.1697 69.3848 67.1439 70.017 66.4278C70.7912 65.5504 71.5267 64.6375 72.2234 63.6924C72.7105 63.0279 72.6395 62.1053 72.0589 61.5247L44.7178 34.1772V34.1804Z" fill="white"/>
<path d="M70.0268 13.5802C69.2946 12.748 68.5269 11.9416 67.7237 11.1706C66.1141 9.61906 64.3722 8.20297 62.5239 6.94172C61.582 6.2998 60.6142 5.6966 59.6207 5.13855C53.8241 1.86123 47.1276 0 39.9988 0C32.8699 0 26.1798 1.86123 20.3832 5.13855C19.3865 5.6966 18.4156 6.2998 17.4736 6.94172C15.6253 8.20297 13.8834 9.62228 12.2738 11.1706C11.4706 11.9416 10.7029 12.7448 9.97066 13.5802C3.76762 20.6252 0 29.8733 0 39.9988C0 46.3018 1.45802 52.2661 4.05794 57.5692C4.56115 58.5982 5.92885 58.8304 6.7385 58.0208L11.7867 52.9725C12.2545 52.5048 12.4061 51.7984 12.1577 51.1855C10.7674 47.7308 9.99969 43.9567 9.99969 40.002C9.99969 32.6345 12.6544 25.8895 17.0608 20.6703C17.7769 19.8187 18.5414 19.0123 19.3478 18.2446C20.9735 16.6995 22.7735 15.335 24.7154 14.1867C25.7121 13.5899 26.7476 13.0544 27.8185 12.577C31.5377 10.9222 35.6602 10.0029 39.9988 10.0029C44.3373 10.0029 48.4566 10.9222 52.179 12.5835C53.25 13.0577 54.2886 13.5964 55.2886 14.1867C57.2305 15.3415 59.0304 16.7027 60.6562 18.2478C61.4658 19.0155 62.2271 19.822 62.9432 20.6735C67.3463 25.8927 70.001 32.6409 70.001 40.002C70.001 43.9567 69.2365 47.7308 67.8463 51.1855C67.5979 51.8016 67.7495 52.5048 68.2172 52.9725L73.2622 58.0176C74.0719 58.8272 75.4364 58.595 75.9428 57.566C78.5427 52.2629 80.0007 46.3018 80.0007 39.9988C80.0007 29.8733 76.2396 20.6252 70.0301 13.5802H70.0268Z" fill="white"/>
</svg>
