<svg width="80" height="80" viewBox="0 0 80 80" fill="none" xmlns="http://www.w3.org/2000/svg">
<path d="M60.3839 63.9911C59.7903 63.3976 58.8517 63.3427 58.1872 63.8524C53.1422 67.7071 46.8359 69.9974 39.9974 69.9974C33.1589 69.9974 26.8559 67.7104 21.8109 63.8556C21.1432 63.346 20.2077 63.4008 19.6142 63.9943L14.8659 68.7426C14.1692 69.4393 14.2208 70.5941 14.9885 71.2135C21.8399 76.7165 30.5364 80.0003 39.9942 80.0003C49.452 80.0003 58.1549 76.7133 65.0063 71.2135C65.774 70.5974 65.8256 69.4393 65.1289 68.7426L60.3806 63.9911H60.3839Z" fill="white"/>
<path d="M44.7178 34.1804C42.1147 31.5772 37.8922 31.5772 35.2891 34.1804L7.94154 61.5279C7.36091 62.1086 7.28672 63.0311 7.7738 63.6956C8.46733 64.6407 9.20279 65.5536 9.97696 66.431C10.6092 67.1471 11.7221 67.1729 12.3962 66.4955L21.1444 57.7506C31.5602 47.338 48.4435 47.338 58.8561 57.7506L67.5977 66.4923C68.2751 67.1697 69.3848 67.1439 70.017 66.4278C70.7912 65.5504 71.5267 64.6375 72.2234 63.6924C72.7105 63.0279 72.6395 62.1053 72.0589 61.5247L44.7178 34.1772V34.1804Z" fill="white"/>
<path d="M70.0268 13.5802C69.2946 12.748 68.5269 11.9416 67.7237 11.1706C66.1141 9.61906 64.3722 8.20297 62.5239 6.94172C61.582 6.2998 60.6142 5.6966 59.6207 5.13855C53.8241 1.86123 47.1276 0 39.9988 0C32.8699 0 26.1798 1.86123 20.3832 5.13855C19.3865 5.6966 18.4156 6.2998 17.4736 6.94172C15.6253 8.20297 13.8834 9.62228 12.2738 11.1706C11.4706 11.9416 10.7029 12.7448 9.97066 13.5802C3.76762 20.6252 0 29.8733 0 39.9988C0 46.3018 1.45802 52.2661 4.05794 57.5692C4.56115 58.5982 5.92885 58.8304 6.7385 58.0208L11.7867 52.9725C12.2545 52.5048 12.4061 51.7984 12.1577 51.1855C10.7674 47.7308 9.99969 43.9567 9.99969 40.002C9.99969 32.6345 12.6544 25.8895 17.0608 20.6703C17.7769 19.8187 18.5414 19.0123 19.3478 18.2446C20.9735 16.6995 22.7735 15.335 24.7154 14.1867C25.7121 13.5899 26.7476 13.0544 27.8185 12.577C31.5377 10.9222 35.6602 10.0029 39.9988 10.0029C44.3373 10.0029 48.4566 10.9222 52.179 12.5835C53.25 13.0577 54.2886 13.5964 55.2886 14.1867C57.2305 15.3415 59.0304 16.7027 60.6562 18.2478C61.4658 19.0155 62.2271 19.822 62.9432 20.6735C67.3463 25.8927 70.001 32.6409 70.001 40.002C70.001 43.9567 69.2365 47.7308 67.8463 51.1855C67.5979 51.8016 67.7495 52.5048 68.2172 52.9725L73.2622 58.0176C74.0719 58.8272 75.4364 58.595 75.9428 57.566C78.5427 52.2629 80.0007 46.3018 80.0007 39.9988C80.0007 29.8733 76.2396 20.6252 70.0301 13.5802H70.0268Z" fill="white"/>
</svg>
