<svg width="462" height="94" viewBox="0 0 462 94" fill="none" xmlns="http://www.w3.org/2000/svg">
<path d="M48.3343 38.1728C46.564 36.129 44.4583 34.4207 42.0016 33.0633C38.3785 31.0608 34.2238 30.0596 29.5324 30.0596C23.9894 30.0596 18.9831 31.4892 14.5084 34.3433C10.0337 37.2025 6.49322 41.0372 3.89203 45.8525C1.29083 50.6678 -0.00976562 56.1025 -0.00976562 62.1565C-0.00976562 68.2104 1.29083 73.516 3.89203 78.3313C6.49322 83.1466 10.0286 86.9607 14.5084 89.7735C18.9831 92.5863 23.9894 93.9953 29.5324 93.9953C34.2187 93.9953 38.3992 92.994 42.0635 90.9915C44.5047 89.66 46.5898 87.9878 48.3291 85.9904V92.7205H62.3931V31.3395H48.3291V38.178L48.3343 38.1728ZM44.4325 75.4515C41.2378 78.9507 37.0366 80.6951 31.8394 80.6951C28.4279 80.6951 25.4241 79.9106 22.823 78.3313C20.2218 76.752 18.178 74.5586 16.6864 71.7458C15.1948 68.933 14.4465 65.6918 14.4465 62.0274C14.4465 58.363 15.1897 55.1219 16.6864 52.3091C18.178 49.4963 20.2218 47.3028 22.823 45.7235C25.4241 44.1442 28.4279 43.3597 31.8394 43.3597C35.2509 43.3597 38.3785 44.1494 40.9849 45.7235C43.5861 47.3028 45.6092 49.4963 47.0595 52.3091C48.5097 55.1219 49.2323 58.363 49.2323 62.0274C49.2323 67.4827 47.6324 71.9574 44.4376 75.4566L44.4325 75.4515Z" fill="#1E1F23"/>
<path d="M115.846 66.3737C115.846 70.8948 114.757 74.3631 112.584 76.7939C110.412 79.2248 107.279 80.4377 103.186 80.4377C100.543 80.4377 98.2623 79.8854 96.3423 78.7758C94.4224 77.6713 92.9722 76.0714 91.9967 73.9811C91.0161 71.8909 90.5258 69.3568 90.5258 66.3737V31.335H76.4618V67.0136C76.4618 72.2986 77.5921 76.9694 79.8526 81.0157C82.108 85.0672 85.2666 88.2412 89.3129 90.5431C93.3592 92.845 97.9887 93.9959 103.186 93.9959C108.383 93.9959 113.116 92.8656 117.126 90.605C121.131 88.3496 124.264 85.191 126.524 81.1447C128.78 77.0984 129.915 72.3864 129.915 67.0136V31.335H115.851V66.3737H115.846Z" fill="#1E1F23"/>
<path d="M167.509 5.76172H153.44V31.335H138.736V44.1242H153.44V92.716H167.509V44.1242H182.213V31.335H167.509V5.76172Z" fill="#1E1F23"/>
<path d="M235.156 34.2767C230.294 31.4639 224.839 30.0549 218.79 30.0549C212.741 30.0549 207.41 31.4846 202.548 34.3386C197.687 37.1979 193.831 41.0119 190.977 45.7808C188.118 50.5548 186.693 55.9275 186.693 61.8938C186.693 67.86 188.118 73.274 190.977 78.1357C193.831 82.9975 197.692 86.8528 202.548 89.7069C207.41 92.5662 212.819 93.9906 218.79 93.9906C224.762 93.9906 230.3 92.5662 235.156 89.7069C240.018 86.8528 243.873 82.9923 246.727 78.1357C249.581 73.274 251.011 67.8652 251.011 61.8938C251.011 55.9224 249.581 50.5342 246.727 45.7189C243.868 40.9036 240.013 37.0895 235.156 34.2715V34.2767ZM234.325 71.4882C232.834 74.301 230.743 76.4997 228.06 78.0738C225.376 79.6531 222.284 80.4376 218.79 80.4376C215.296 80.4376 212.334 79.6531 209.645 78.0738C206.961 76.4997 204.871 74.301 203.379 71.4882C201.888 68.6754 201.139 65.4756 201.139 61.8989C201.139 58.3223 201.882 55.1637 203.379 52.4386C204.871 49.7136 206.961 47.5614 209.645 45.9821C212.329 44.408 215.379 43.6183 218.79 43.6183C222.202 43.6183 225.355 44.408 227.998 45.9821C230.64 47.5614 232.73 49.7136 234.263 52.4386C235.796 55.1688 236.565 58.3223 236.565 61.8989C236.565 65.4756 235.817 68.6754 234.325 71.4882Z" fill="#1E1F23"/>
<path d="M307.272 33.1263C303.69 31.0773 299.597 30.0554 294.993 30.0554C290.39 30.0554 286.405 31.098 282.782 33.1882C280.418 34.5507 278.401 36.2436 276.708 38.2564V0.647461H262.644V92.7163H276.708V57.2957C276.708 54.5706 277.301 52.1398 278.499 50.0082C279.691 47.8767 281.353 46.2148 283.484 45.0226C285.616 43.8304 288.047 43.2317 290.772 43.2317C294.864 43.2317 298.209 44.5529 300.81 47.1954C303.411 49.8379 304.712 53.2081 304.712 57.2957V92.7163H318.776V54.2248C318.776 49.4508 317.754 45.2549 315.705 41.6318C313.661 38.0087 310.843 35.1752 307.267 33.1263H307.272Z" fill="#1E1F23"/>
<path d="M370.955 66.3737C370.955 70.8948 369.866 74.3631 367.693 76.7939C365.52 79.2248 362.387 80.4377 358.295 80.4377C355.652 80.4377 353.371 79.8854 351.451 78.7758C349.531 77.6713 348.081 76.0714 347.105 73.9811C346.125 71.8909 345.634 69.3568 345.634 66.3737V31.335H331.57V67.0136C331.57 72.2986 332.701 76.9694 334.961 81.0157C337.217 85.0672 340.375 88.2412 344.422 90.5431C348.468 92.845 353.097 93.9959 358.295 93.9959C363.492 93.9959 368.225 92.8656 372.235 90.605C376.24 88.3496 379.373 85.191 381.633 81.1447C383.888 77.0984 385.024 72.3864 385.024 67.0136V31.335H370.96V66.3737H370.955Z" fill="#1E1F23"/>
<path d="M457.717 45.8535C455.116 41.0382 451.581 37.2035 447.101 34.3443C442.626 31.4902 437.615 30.0606 432.077 30.0606C427.473 30.0606 423.339 31.0618 419.675 33.0643C417.187 34.4217 415.061 36.1352 413.28 38.179V0.647461H399.216V92.7163H413.28V85.9914C415.019 87.9888 417.104 89.661 419.546 90.9925C423.21 92.995 427.385 93.9963 432.077 93.9963C437.615 93.9963 442.626 92.5873 447.101 89.7745C451.575 86.9617 455.111 83.1477 457.717 78.3323C460.318 73.517 461.619 68.1237 461.619 62.1575C461.619 56.1912 460.318 50.6688 457.717 45.8535ZM444.928 71.7468C443.436 74.5596 441.387 76.7582 438.791 78.3323C436.19 79.9116 433.186 80.6961 429.775 80.6961C426.363 80.6961 423.339 79.9116 420.697 78.3323C418.054 76.753 416.005 74.5596 414.56 71.7468C413.11 68.934 412.387 65.6928 412.387 62.0284C412.387 58.364 413.11 55.1229 414.56 52.3101C416.01 49.4973 418.054 47.3038 420.697 45.7245C423.339 44.1452 426.363 43.3607 429.775 43.3607C433.186 43.3607 436.19 44.1504 438.791 45.7245C441.393 47.3038 443.436 49.4973 444.928 52.3101C446.419 55.1229 447.168 58.364 447.168 62.0284C447.168 65.6928 446.419 68.934 444.928 71.7468Z" fill="#1E1F23"/>
</svg>
