<svg width="622" height="128" viewBox="0 0 622 128" fill="none" xmlns="http://www.w3.org/2000/svg">
<path d="M208.334 40.1728C206.564 38.129 204.458 36.4207 202.002 35.0633C198.379 33.0608 194.224 32.0596 189.532 32.0596C183.989 32.0596 178.983 33.4892 174.508 36.3433C170.034 39.2025 166.493 43.0372 163.892 47.8525C161.291 52.6678 159.99 58.1025 159.99 64.1565C159.99 70.2104 161.291 75.516 163.892 80.3313C166.493 85.1466 170.029 88.9607 174.508 91.7735C178.983 94.5863 183.989 95.9953 189.532 95.9953C194.219 95.9953 198.399 94.994 202.064 92.9915C204.505 91.66 206.59 89.9878 208.329 87.9904V94.7205H222.393V33.3395H208.329V40.178L208.334 40.1728ZM204.432 77.4515C201.238 80.9507 197.037 82.6951 191.839 82.6951C188.428 82.6951 185.424 81.9106 182.823 80.3313C180.222 78.752 178.178 76.5586 176.686 73.7458C175.195 70.933 174.446 67.6918 174.446 64.0274C174.446 60.363 175.19 57.1219 176.686 54.3091C178.178 51.4963 180.222 49.3028 182.823 47.7235C185.424 46.1442 188.428 45.3597 191.839 45.3597C195.251 45.3597 198.379 46.1494 200.985 47.7235C203.586 49.3028 205.609 51.4963 207.059 54.3091C208.51 57.1219 209.232 60.363 209.232 64.0274C209.232 69.4827 207.632 73.9574 204.438 77.4566L204.432 77.4515Z" fill="#1E1F23"/>
<path d="M275.846 68.3737C275.846 72.8948 274.757 76.3631 272.584 78.7939C270.412 81.2248 267.279 82.4377 263.186 82.4377C260.543 82.4377 258.262 81.8854 256.342 80.7758C254.422 79.6713 252.972 78.0714 251.997 75.9811C251.016 73.8909 250.526 71.3568 250.526 68.3737V33.335H236.462V69.0136C236.462 74.2986 237.592 78.9694 239.853 83.0157C242.108 87.0672 245.267 90.2412 249.313 92.5431C253.359 94.845 257.989 95.9959 263.186 95.9959C268.383 95.9959 273.116 94.8656 277.126 92.605C281.131 90.3496 284.264 87.191 286.524 83.1447C288.78 79.0984 289.915 74.3864 289.915 69.0136V33.335H275.851V68.3737H275.846Z" fill="#1E1F23"/>
<path d="M327.509 7.76172H313.44V33.335H298.736V46.1242H313.44V94.716H327.509V46.1242H342.213V33.335H327.509V7.76172Z" fill="#1E1F23"/>
<path d="M395.156 36.2767C390.294 33.4639 384.839 32.0549 378.79 32.0549C372.741 32.0549 367.41 33.4846 362.548 36.3386C357.687 39.1979 353.831 43.0119 350.977 47.7808C348.118 52.5548 346.693 57.9275 346.693 63.8938C346.693 69.86 348.118 75.274 350.977 80.1357C353.831 84.9975 357.692 88.8528 362.548 91.7069C367.41 94.5662 372.819 95.9906 378.79 95.9906C384.762 95.9906 390.3 94.5662 395.156 91.7069C400.018 88.8528 403.873 84.9923 406.727 80.1357C409.581 75.274 411.011 69.8652 411.011 63.8938C411.011 57.9224 409.581 52.5342 406.727 47.7189C403.868 42.9036 400.013 39.0895 395.156 36.2715V36.2767ZM394.325 73.4882C392.834 76.301 390.743 78.4997 388.06 80.0738C385.376 81.6531 382.284 82.4376 378.79 82.4376C375.296 82.4376 372.334 81.6531 369.645 80.0738C366.961 78.4997 364.871 76.301 363.379 73.4882C361.888 70.6754 361.139 67.4756 361.139 63.8989C361.139 60.3223 361.882 57.1637 363.379 54.4386C364.871 51.7136 366.961 49.5614 369.645 47.9821C372.329 46.408 375.379 45.6183 378.79 45.6183C382.202 45.6183 385.355 46.408 387.998 47.9821C390.64 49.5614 392.73 51.7136 394.263 54.4386C395.796 57.1688 396.565 60.3223 396.565 63.8989C396.565 67.4756 395.817 70.6754 394.325 73.4882Z" fill="#1E1F23"/>
<path d="M467.272 35.1263C463.69 33.0773 459.597 32.0554 454.993 32.0554C450.39 32.0554 446.405 33.098 442.782 35.1882C440.418 36.5507 438.401 38.2436 436.708 40.2564V2.64746H422.644V94.7163H436.708V59.2957C436.708 56.5706 437.301 54.1398 438.499 52.0082C439.691 49.8767 441.353 48.2148 443.484 47.0226C445.616 45.8304 448.047 45.2317 450.772 45.2317C454.864 45.2317 458.209 46.5529 460.81 49.1954C463.411 51.8379 464.712 55.2081 464.712 59.2957V94.7163H478.776V56.2248C478.776 51.4508 477.754 47.2549 475.705 43.6318C473.661 40.0087 470.843 37.1752 467.267 35.1263H467.272Z" fill="#1E1F23"/>
<path d="M530.955 68.3737C530.955 72.8948 529.866 76.3631 527.693 78.7939C525.52 81.2248 522.387 82.4377 518.295 82.4377C515.652 82.4377 513.371 81.8854 511.451 80.7758C509.531 79.6713 508.081 78.0714 507.105 75.9811C506.125 73.8909 505.634 71.3568 505.634 68.3737V33.335H491.57V69.0136C491.57 74.2986 492.701 78.9694 494.961 83.0157C497.217 87.0672 500.375 90.2412 504.422 92.5431C508.468 94.845 513.097 95.9959 518.295 95.9959C523.492 95.9959 528.225 94.8656 532.235 92.605C536.24 90.3496 539.373 87.191 541.633 83.1447C543.888 79.0984 545.024 74.3864 545.024 69.0136V33.335H530.96V68.3737H530.955Z" fill="#1E1F23"/>
<path d="M617.717 47.8535C615.116 43.0382 611.581 39.2035 607.101 36.3443C602.626 33.4902 597.615 32.0606 592.077 32.0606C587.473 32.0606 583.339 33.0618 579.675 35.0643C577.187 36.4217 575.061 38.1352 573.28 40.179V2.64746H559.216V94.7163H573.28V87.9914C575.019 89.9888 577.104 91.661 579.546 92.9925C583.21 94.995 587.385 95.9963 592.077 95.9963C597.615 95.9963 602.626 94.5873 607.101 91.7745C611.575 88.9617 615.111 85.1477 617.717 80.3323C620.318 75.517 621.619 70.1237 621.619 64.1575C621.619 58.1912 620.318 52.6688 617.717 47.8535ZM604.928 73.7468C603.436 76.5596 601.387 78.7582 598.791 80.3323C596.19 81.9116 593.186 82.6961 589.775 82.6961C586.363 82.6961 583.339 81.9116 580.697 80.3323C578.054 78.753 576.005 76.5596 574.56 73.7468C573.11 70.934 572.387 67.6928 572.387 64.0284C572.387 60.364 573.11 57.1229 574.56 54.3101C576.01 51.4973 578.054 49.3038 580.697 47.7245C583.339 46.1452 586.363 45.3607 589.775 45.3607C593.186 45.3607 596.19 46.1504 598.791 47.7245C601.393 49.3038 603.436 51.4973 604.928 54.3101C606.419 57.1229 607.168 60.364 607.168 64.0284C607.168 67.6928 606.419 70.934 604.928 73.7468Z" fill="#1E1F23"/>
<path d="M96.6149 102.385C95.6653 101.436 94.1634 101.348 93.1002 102.163C85.0283 108.331 74.9383 111.995 63.9968 111.995C53.0553 111.995 42.9705 108.336 34.8985 102.169C33.8302 101.353 32.3334 101.441 31.3838 102.391L23.7867 109.988C22.6719 111.102 22.7544 112.95 23.9828 113.941C34.945 122.746 48.8593 128 63.9916 128C79.124 128 93.0486 122.741 104.011 113.941C105.239 112.955 105.322 111.102 104.207 109.988L96.6098 102.385H96.6149Z" fill="#1E1F23"/>
<path d="M71.5485 54.6872C67.3835 50.5222 60.6277 50.5222 56.4626 54.6872L12.7068 98.443C11.7778 99.372 11.6591 100.848 12.4385 101.911C13.5481 103.424 14.7248 104.884 15.9635 106.288C16.9751 107.434 18.7557 107.475 19.8343 106.391L33.8312 92.3994C50.4964 75.7394 77.5096 75.7394 94.1696 92.3994L108.156 106.386C109.24 107.47 111.015 107.429 112.027 106.283C113.266 104.879 114.442 103.418 115.557 101.906C116.337 100.843 116.223 99.3669 115.294 98.4379L71.5485 54.6821V54.6872Z" fill="#0057FF"/>
<path d="M112.042 21.7282C110.871 20.3967 109.642 19.1064 108.357 17.8729C105.782 15.3904 102.995 13.1247 100.038 11.1067C98.5306 10.0796 96.9822 9.1145 95.3926 8.22163C86.1181 2.97796 75.4037 0 63.9976 0C52.5916 0 41.8875 2.97796 32.613 8.22163C31.0182 9.1145 29.4647 10.0796 27.9577 11.1067C25.0004 13.1247 22.2134 15.3956 19.638 17.8729C18.3529 19.1064 17.1245 20.3915 15.953 21.7282C6.02816 33.0001 0 47.797 0 63.9976C0 74.0824 2.33282 83.6253 6.49266 92.1102C7.2978 93.7566 9.4861 94.1282 10.7815 92.8327L18.8587 84.7556C19.607 84.0072 19.8496 82.877 19.4522 81.8963C17.2278 76.3688 15.9994 70.3303 15.9994 64.0028C15.9994 52.2149 20.247 41.423 27.2971 33.0723C28.4428 31.7098 29.666 30.4195 30.9563 29.1912C33.5575 26.719 36.4374 24.5359 39.5443 22.6985C41.1391 21.7437 42.7958 20.887 44.5093 20.1231C50.4601 17.4755 57.056 16.0046 63.9976 16.0046C70.9393 16.0046 77.53 17.4755 83.486 20.1335C85.1994 20.8921 86.8613 21.754 88.4613 22.6985C91.5682 24.5462 94.4481 26.7242 97.0493 29.1963C98.3448 30.4247 99.5628 31.715 100.709 33.0775C107.753 41.4282 112.001 52.2252 112.001 64.0028C112.001 70.3303 110.778 76.3688 108.553 81.8963C108.156 82.8821 108.399 84.0072 109.147 84.7556L117.219 92.8276C118.514 94.123 120.697 93.7514 121.508 92.105C125.668 83.6202 128 74.0824 128 63.9976C128 47.797 121.983 33.0001 112.047 21.7282H112.042Z" fill="#1E1F23"/>
</svg>
